<?xml version="1.0" standalone="no"?>
<!DOCTYPE svg PUBLIC "-//W3C//DTD SVG 20010904//EN"
 "http://www.w3.org/TR/2001/REC-SVG-20010904/DTD/svg10.dtd">
<svg version="1.0" xmlns="http://www.w3.org/2000/svg"
 width="3518.000000pt" height="3518.000000pt" viewBox="0 0 3518.000000 3518.000000"
 preserveAspectRatio="xMidYMid meet">
<metadata>
Created by potrace 1.11, written by Peter Selinger 2001-2013
</metadata>
<g transform="translate(0.000000,3518.000000) scale(0.100000,-0.100000)"
fill="#000000" stroke="none">
<path d="M16688 35175 c-2 -1 -86 -6 -188 -9 -102 -4 -207 -9 -235 -11 -27 -2
-99 -7 -160 -11 -169 -9 -208 -12 -282 -18 -37 -3 -97 -8 -133 -11 -36 -3 -87
-8 -115 -11 -27 -3 -72 -7 -100 -9 -62 -6 -139 -14 -185 -20 -19 -2 -57 -7
-85 -10 -27 -3 -68 -7 -90 -10 -22 -3 -62 -7 -90 -11 -51 -6 -70 -8 -140 -18
-22 -3 -60 -8 -85 -11 -87 -12 -424 -63 -464 -71 -11 -2 -37 -7 -56 -10 -19
-3 -73 -12 -120 -21 -47 -9 -94 -17 -105 -19 -11 -2 -33 -5 -50 -8 -48 -7
-513 -103 -590 -121 -38 -9 -110 -25 -160 -36 -49 -11 -97 -22 -105 -24 -116
-26 -557 -142 -735 -193 -336 -97 -791 -242 -1050 -337 -55 -20 -129 -47 -165
-60 -227 -80 -782 -304 -1004 -404 -22 -11 -113 -51 -201 -91 -365 -164 -956
-466 -1350 -690 -22 -13 -60 -34 -85 -48 -61 -34 -419 -249 -505 -304 -38 -24
-99 -61 -133 -83 -327 -205 -879 -590 -1197 -835 -139 -106 -388 -303 -395
-310 -3 -3 -28 -24 -57 -46 -29 -23 -76 -62 -105 -86 -29 -25 -91 -78 -138
-118 -144 -123 -208 -178 -275 -238 -16 -15 -70 -63 -119 -107 -49 -44 -99
-89 -111 -100 -11 -11 -81 -76 -154 -145 -271 -253 -699 -690 -935 -953 -110
-123 -117 -130 -145 -162 -34 -37 -321 -373 -376 -441 -48 -58 -239 -296 -277
-345 -124 -159 -266 -348 -308 -409 -8 -12 -23 -31 -32 -43 -9 -12 -40 -53
-67 -92 -28 -38 -54 -75 -58 -80 -139 -186 -588 -874 -722 -1105 -18 -30 -36
-62 -41 -70 -21 -34 -94 -157 -110 -185 -275 -488 -523 -965 -682 -1315 -37
-80 -82 -179 -101 -220 -20 -41 -70 -156 -111 -255 -42 -99 -81 -189 -86 -200
-5 -11 -19 -45 -31 -75 -12 -30 -27 -68 -34 -85 -15 -33 -89 -222 -134 -342
-87 -229 -282 -790 -290 -835 -1 -5 -7 -25 -15 -45 -8 -21 -26 -76 -40 -123
-14 -47 -37 -122 -51 -167 -14 -45 -32 -106 -39 -135 -8 -29 -24 -84 -36 -123
-11 -38 -22 -79 -25 -90 -2 -11 -27 -105 -55 -210 -42 -161 -144 -575 -156
-640 -2 -11 -6 -29 -8 -40 -17 -73 -75 -355 -79 -380 -3 -16 -12 -64 -20 -105
-9 -41 -18 -93 -22 -115 -3 -22 -7 -47 -10 -55 -2 -8 -6 -31 -9 -50 -3 -19 -8
-46 -10 -60 -9 -48 -15 -83 -22 -129 -4 -25 -8 -55 -10 -66 -4 -23 -12 -69
-18 -105 -2 -14 -7 -41 -10 -60 -6 -37 -11 -73 -21 -155 -4 -27 -8 -61 -11
-75 -2 -14 -6 -45 -9 -70 -3 -25 -8 -58 -10 -75 -11 -74 -18 -126 -41 -335
-21 -192 -22 -201 -29 -300 -4 -47 -8 -96 -10 -110 -2 -14 -6 -63 -10 -110 -3
-47 -8 -107 -10 -135 -3 -27 -7 -97 -11 -155 -3 -58 -7 -130 -9 -160 -27 -425
-27 -1428 0 -1885 18 -300 28 -436 40 -565 3 -25 7 -74 10 -109 5 -60 8 -89
21 -216 3 -27 7 -70 9 -95 5 -46 13 -113 21 -165 2 -16 6 -50 8 -75 3 -25 7
-61 10 -80 3 -19 10 -73 16 -120 15 -111 31 -226 45 -310 12 -72 27 -168 30
-190 2 -14 6 -41 10 -60 5 -33 13 -79 39 -222 2 -13 14 -75 25 -138 21 -110
29 -149 72 -355 11 -49 23 -110 28 -135 36 -173 148 -628 211 -860 17 -63 37
-137 45 -165 66 -245 234 -776 347 -1095 79 -225 255 -693 288 -765 5 -11 32
-76 61 -145 89 -217 128 -307 280 -640 172 -378 494 -1008 679 -1330 21 -36
47 -82 59 -103 49 -86 62 -110 156 -267 204 -343 573 -913 727 -1125 17 -22
86 -119 155 -215 69 -96 137 -188 150 -205 13 -16 27 -35 31 -40 61 -83 97
-131 101 -135 4 -3 26 -32 51 -65 36 -50 86 -113 223 -285 62 -78 94 -117 102
-126 6 -6 28 -33 50 -60 108 -131 199 -240 204 -244 3 -3 49 -54 101 -115 98
-114 125 -145 182 -206 18 -21 65 -72 103 -115 39 -43 104 -114 146 -159 42
-44 91 -96 109 -115 55 -61 453 -461 567 -570 115 -110 333 -315 369 -347 38
-32 158 -140 187 -167 104 -97 503 -432 692 -582 55 -43 102 -81 105 -84 32
-34 679 -515 824 -612 10 -7 28 -20 40 -29 51 -39 497 -334 656 -435 293 -186
933 -564 955 -564 3 0 22 -11 43 -24 92 -58 728 -382 982 -501 273 -127 282
-131 362 -165 43 -17 80 -36 84 -41 3 -5 12 -9 19 -9 8 0 38 -11 67 -24 82
-37 140 -62 178 -76 19 -7 39 -17 45 -22 5 -4 15 -8 22 -8 7 0 36 -11 65 -24
133 -61 700 -275 968 -365 69 -23 134 -46 145 -50 113 -48 908 -282 1210 -358
33 -8 67 -16 75 -19 94 -26 688 -162 870 -198 14 -2 50 -10 80 -16 30 -6 69
-13 85 -16 17 -3 66 -12 110 -20 114 -21 185 -34 225 -40 19 -2 58 -9 85 -14
77 -15 106 -19 155 -26 25 -3 70 -9 100 -14 30 -5 71 -12 90 -14 19 -3 82 -12
140 -20 58 -8 128 -18 155 -21 28 -3 61 -7 75 -9 14 -3 52 -7 85 -11 118 -13
140 -15 175 -20 33 -4 69 -8 210 -21 30 -2 71 -7 90 -9 19 -3 64 -7 100 -10
36 -2 94 -7 130 -10 70 -6 139 -10 295 -20 55 -3 127 -8 160 -10 388 -27 1504
-27 1873 0 32 2 102 7 157 10 55 3 127 8 160 10 33 3 94 7 135 10 41 3 91 8
110 10 19 2 71 6 115 9 44 4 94 9 110 11 17 2 57 7 90 10 70 7 95 10 270 30
161 19 213 25 245 30 14 2 61 9 105 15 44 6 91 13 104 15 13 2 45 7 70 11 121
17 595 99 751 130 96 19 186 37 200 40 14 2 43 8 65 14 22 5 105 23 185 40 80
17 159 35 175 40 17 5 41 11 55 14 91 15 694 176 892 237 53 16 105 32 115 34
177 39 1305 440 1548 550 17 8 101 43 187 79 86 37 185 79 220 95 35 16 126
57 203 91 153 68 759 367 920 453 328 176 784 437 945 541 78 51 236 150 255
160 68 38 622 414 751 510 23 17 52 38 64 46 39 26 437 327 493 372 29 24 67
53 83 65 60 46 264 211 274 222 3 3 28 24 55 46 28 22 61 49 75 61 79 68 257
220 266 229 6 6 49 44 95 85 506 454 977 927 1410 1415 92 103 334 386 369
430 14 17 97 122 186 232 88 110 214 271 280 359 65 87 123 164 129 171 5 6
21 28 35 48 14 20 41 57 61 83 19 26 49 67 65 92 16 25 32 47 35 50 15 12 385
566 490 732 435 691 853 1474 1164 2178 42 96 85 193 96 216 10 22 19 44 19
49 0 4 9 26 20 49 11 23 47 109 80 191 33 83 65 159 70 170 50 114 261 699
344 960 32 99 60 187 63 195 4 8 7 20 9 25 1 6 20 69 42 140 95 308 258 909
286 1055 2 14 14 66 26 115 12 50 24 100 26 113 3 13 16 76 30 140 26 121 70
335 78 386 3 16 10 52 15 80 11 56 16 81 31 171 5 33 12 71 15 85 4 24 32 196
40 250 2 14 7 45 11 70 4 25 8 54 9 65 4 30 22 162 30 215 10 67 31 237 40
320 3 30 8 71 10 90 3 19 7 60 10 90 3 30 7 78 10 105 13 123 17 165 30 340 3
44 8 98 10 120 2 22 6 90 10 150 3 61 8 137 10 170 13 212 20 512 20 935 0
515 -7 741 -31 1105 -3 55 -7 123 -9 150 -5 87 -15 209 -20 245 -2 19 -7 71
-10 115 -3 44 -8 94 -10 110 -2 17 -7 62 -10 100 -3 39 -8 81 -10 95 -2 14 -6
52 -10 85 -6 61 -43 349 -50 395 -2 14 -6 48 -10 75 -3 28 -7 59 -9 70 -5 25
-14 88 -22 140 -3 22 -23 146 -45 275 -34 201 -47 276 -84 460 -3 14 -8 39
-10 55 -11 58 -96 451 -121 555 -14 58 -27 112 -29 120 -4 16 -43 174 -49 200
-2 8 -16 62 -31 120 -24 97 -93 348 -131 480 -42 143 -103 338 -185 585 -49
149 -98 297 -108 330 -25 75 -77 219 -96 265 -8 19 -30 79 -49 132 -20 53 -40
107 -45 120 -6 13 -45 111 -87 218 -74 186 -198 483 -251 600 -14 30 -31 69
-38 85 -109 248 -355 754 -475 980 -20 39 -61 115 -90 170 -500 942 -1204
2001 -1888 2840 -40 50 -79 97 -85 105 -7 9 -34 42 -62 75 -27 33 -57 68 -65
79 -8 10 -20 23 -25 30 -6 6 -82 94 -170 196 -88 102 -167 192 -175 201 -8 8
-53 58 -100 109 -47 52 -119 130 -161 174 -42 45 -93 99 -113 121 -84 91 -503
510 -641 640 -82 77 -158 149 -169 160 -22 21 -298 270 -355 320 -18 17 -39
35 -45 40 -24 23 -344 293 -391 330 -27 22 -52 42 -55 46 -3 3 -34 29 -70 58
-36 29 -74 60 -85 69 -17 13 -87 68 -370 288 -25 19 -245 183 -277 206 -12 9
-53 38 -90 65 -36 26 -75 54 -85 61 -10 7 -54 38 -98 69 -145 102 -587 397
-702 468 -82 51 -241 150 -273 170 -44 29 -350 210 -410 243 -25 14 -94 53
-155 87 -136 77 -195 109 -310 170 -49 26 -112 60 -140 75 -116 64 -798 400
-810 400 -2 0 -43 18 -92 41 -170 79 -578 253 -768 328 -44 18 -89 36 -100 41
-112 50 -653 244 -1065 383 -202 68 -1078 315 -1180 333 -14 3 -33 7 -42 10
-9 3 -25 7 -35 9 -10 2 -76 18 -148 35 -71 18 -139 34 -150 36 -11 2 -51 11
-90 20 -38 8 -79 17 -90 19 -11 2 -87 18 -170 35 -82 17 -161 33 -175 35 -14
3 -36 7 -50 10 -14 3 -61 12 -105 20 -44 8 -91 17 -105 19 -22 4 -58 10 -174
30 -16 3 -50 8 -75 12 -25 4 -55 8 -66 10 -30 6 -264 42 -310 48 -71 9 -120
16 -140 20 -11 2 -47 7 -80 10 -33 4 -73 10 -90 12 -16 3 -50 7 -75 8 -25 2
-61 6 -80 10 -19 3 -60 8 -90 11 -30 2 -82 8 -115 11 -33 3 -76 7 -95 9 -19 2
-60 6 -90 9 -30 3 -82 8 -115 11 -33 3 -85 7 -115 10 -30 2 -95 7 -145 10 -49
3 -110 7 -135 10 -25 2 -106 7 -180 11 -74 3 -166 8 -205 10 -80 5 -1242 13
-1247 9z"/>
</g>
</svg>
